# xmcd
#
# Track frame offsets: 
#        150
#        26975
#        44340
#        76822
#        95751
#        114189
#        134059
#        159139
#        173910
#        190791
#        213214
#        233258
#
# Disc length: 3374 seconds
#
# Revision: 1
# Processed by: cddbd v1.5.2PL0 Copyright (c) Steve Scherf et al.
# Submitted via: ExactAudioCopy v0.99pb5
#
DISCID=910d2c0c
DTITLE=Mario Biondi and the High Five Quintet - Handful of Soul
DYEAR=2006
DGENRE=Soul
TTITLE0=A Child Runs Free
TTITLE1=No Mercy For Me
TTITLE2=This Is What You Are
TTITLE3=Rio De Janeiro Blue
TTITLE4=Slow Hot Wind
TTITLE5=A Handful Of Soul
TTITLE6=Never Die
TTITLE7=On A Clear Day
TTITLE8=Gig
TTITLE9=I Can't Keep From Crying Sometimes
TTITLE10=No Trouble On The Mountain
TTITLE11=I'm Her daddy
EXTD=
EXTT0=
EXTT1=
EXTT2=
EXTT3=
EXTT4=
EXTT5=
EXTT6=
EXTT7=
EXTT8=
EXTT9=
EXTT10=
EXTT11=
PLAYORDER=
